<svg xmlns="http://www.w3.org/2000/svg" viewBox="0 0 32 32" role="img" aria-label="SkillForge">
  <defs>
    <linearGradient id="sf-surface" x1="8%" y1="0%" x2="92%" y2="100%">
      <stop offset="0%" stop-color="#3730A3"/>
      <stop offset="45%" stop-color="#6366F1"/>
      <stop offset="100%" stop-color="#7C3AED"/>
    </linearGradient>
    <linearGradient id="sf-shine" x1="50%" y1="0%" x2="50%" y2="100%">
      <stop offset="0%" stop-color="#E0E7FF" stop-opacity="0.45"/>
      <stop offset="55%" stop-color="#A5B4FC" stop-opacity="0.08"/>
      <stop offset="100%" stop-color="#6366F1" stop-opacity="0"/>
    </linearGradient>
  </defs>
  <rect width="32" height="32" rx="8" fill="#1E1B4B"/>
  <rect width="32" height="32" rx="8" fill="url(#sf-surface)"/>
  <ellipse cx="16" cy="11" rx="14" ry="9" fill="url(#sf-shine)"/>
  <!-- SF monogram: crisp at 16–32px -->
  <g fill="#F8FAFC">
    <path d="M6 8h8.25v2H8.55v4.1h4.9v2h-4.9V24H6V8z"/>
    <path d="M17.15 8.15c2.95 0 4.85 1.45 4.85 3.75 0 2.05-1.35 3.15-4.1 3.55l-1.35.2c-1.45.2-1.9.55-1.9 1.35 0 .85.75 1.35 2.05 1.35 1.15 0 2.25-.45 3.05-1.2l1.25 1.55c-1 1-2.55 1.55-4.35 1.55-3.15 0-5.05-1.55-5.05-4.05 0-2 1.3-3.1 3.95-3.45l1.35-.2c1.6-.2 2.1-.6 2.1-1.45 0-.9-.8-1.45-2.25-1.45-1.25 0-2.45.5-3.3 1.35l-1.4-1.5c1.15-1.1 2.85-1.7 4.85-1.7z"/>
  </g>
</svg>
